<svg width="32" height="22" viewBox="0 0 32 22" fill="none" xmlns="http://www.w3.org/2000/svg">
<path fill-rule="evenodd" clip-rule="evenodd" d="M0.25 1.8125C0.25 1.4644 0.388281 1.13056 0.634422 0.884422C0.880564 0.638281 1.2144 0.5 1.5625 0.5H30.4375C30.7856 0.5 31.1194 0.638281 31.3656 0.884422C31.6117 1.13056 31.75 1.4644 31.75 1.8125C31.75 2.1606 31.6117 2.49444 31.3656 2.74058C31.1194 2.98672 30.7856 3.125 30.4375 3.125H1.5625C1.2144 3.125 0.880564 2.98672 0.634422 2.74058C0.388281 2.49444 0.25 2.1606 0.25 1.8125ZM0.25 11C0.25 10.6519 0.388281 10.3181 0.634422 10.0719C0.880564 9.82578 1.2144 9.6875 1.5625 9.6875H30.4375C30.7856 9.6875 31.1194 9.82578 31.3656 10.0719C31.6117 10.3181 31.75 10.6519 31.75 11C31.75 11.3481 31.6117 11.6819 31.3656 11.9281C31.1194 12.1742 30.7856 12.3125 30.4375 12.3125H1.5625C1.2144 12.3125 0.880564 12.1742 0.634422 11.9281C0.388281 11.6819 0.25 11.3481 0.25 11ZM0.25 20.1875C0.25 19.8394 0.388281 19.5056 0.634422 19.2594C0.880564 19.0133 1.2144 18.875 1.5625 18.875H30.4375C30.7856 18.875 31.1194 19.0133 31.3656 19.2594C31.6117 19.5056 31.75 19.8394 31.75 20.1875C31.75 20.5356 31.6117 20.8694 31.3656 21.1156C31.1194 21.3617 30.7856 21.5 30.4375 21.5H1.5625C1.2144 21.5 0.880564 21.3617 0.634422 21.1156C0.388281 20.8694 0.25 20.5356 0.25 20.1875Z" fill="#737373"/>
</svg>
