<svg width="42" height="42" viewBox="0 0 42 42" fill="none" xmlns="http://www.w3.org/2000/svg">
<path d="M16.625 5.25C19.6418 5.25 22.5351 6.44843 24.6683 8.58166C26.8016 10.7149 28 13.6082 28 16.625C28 19.4425 26.9675 22.0325 25.27 24.0275L25.7425 24.5H27.125L35.875 33.25L33.25 35.875L24.5 27.125V25.7425L24.0275 25.27C22.0325 26.9675 19.4425 28 16.625 28C13.6082 28 10.7149 26.8016 8.58166 24.6683C6.44843 22.5351 5.25 19.6418 5.25 16.625C5.25 13.6082 6.44843 10.7149 8.58166 8.58166C10.7149 6.44843 13.6082 5.25 16.625 5.25ZM16.625 8.75C12.25 8.75 8.75 12.25 8.75 16.625C8.75 21 12.25 24.5 16.625 24.5C21 24.5 24.5 21 24.5 16.625C24.5 12.25 21 8.75 16.625 8.75Z" fill="#737373"/>
</svg>
